<svg xmlns="http://www.w3.org/2000/svg" fill="none" viewBox="0 0 136 44"><defs><linearGradient id="paint0_linear" x1="20.959" x2="3.887" y1="11.216" y2="28.224" gradientUnits="userSpaceOnUse"><stop offset="0" stop-color="#00A0FF"/><stop offset=".007" stop-color="#00A1FF"/><stop offset=".26" stop-color="#00BEFF"/><stop offset=".512" stop-color="#00D2FF"/><stop offset=".76" stop-color="#00DFFF"/><stop offset="1" stop-color="#00E3FF"/></linearGradient><linearGradient id="paint1_linear" x1="33.154" x2="8.631" y1="22.702" y2="22.702" gradientUnits="userSpaceOnUse"><stop offset="0" stop-color="#FFE000"/><stop offset=".409" stop-color="#FFBD00"/><stop offset=".775" stop-color="orange"/><stop offset="1" stop-color="#FF9C00"/></linearGradient><linearGradient id="paint2_linear" x1="24.028" x2=".878" y1="25.036" y2="48.101" gradientUnits="userSpaceOnUse"><stop offset="0" stop-color="#FF3A44"/><stop offset="1" stop-color="#C31162"/></linearGradient><linearGradient id="paint3_linear" x1="6.261" x2="16.599" y1="2.537" y2="12.836" gradientUnits="userSpaceOnUse"><stop offset="0" stop-color="#32A071"/><stop offset=".069" stop-color="#2DA771"/><stop offset=".476" stop-color="#15CF74"/><stop offset=".801" stop-color="#06E775"/><stop offset="1" stop-color="#00F076"/></linearGradient></defs><path fill="#333" d="M136 0H0v44h136z"/><path fill="#fff" d="M67.883 24.533c-2.432 0-4.358 1.831-4.358 4.374 0 2.441 1.926 4.374 4.358 4.374 2.433 0 4.358-1.83 4.358-4.374 0-2.645-1.925-4.374-4.358-4.374m0 6.917c-1.317 0-2.432-1.119-2.432-2.645s1.115-2.645 2.432-2.645c1.318 0 2.433 1.018 2.433 2.645 0 1.526-1.115 2.645-2.433 2.645m-9.425-6.917c-2.432 0-4.358 1.831-4.358 4.374 0 2.441 1.926 4.374 4.358 4.374s4.358-1.83 4.358-4.374c0-2.645-1.926-4.374-4.358-4.374m0 6.917c-1.318 0-2.432-1.119-2.432-2.645s1.114-2.645 2.432-2.645 2.432 1.018 2.432 2.645c0 1.526-1.115 2.645-2.432 2.645m-11.25-5.595v1.831h4.358c-.101 1.018-.506 1.831-1.013 2.34-.608.61-1.622 1.322-3.345 1.322-2.736 0-4.763-2.136-4.763-4.882 0-2.747 2.128-4.883 4.763-4.883 1.42 0 2.534.61 3.345 1.322l1.317-1.322c-1.114-1.017-2.533-1.831-4.56-1.831-3.649 0-6.79 3.052-6.79 6.714s3.141 6.713 6.79 6.713c2.027 0 3.446-.61 4.662-1.932 1.216-1.221 1.621-2.95 1.621-4.273 0-.407 0-.814-.101-1.119zM93.22 27.28c-.406-1.017-1.419-2.746-3.649-2.746s-4.053 1.73-4.053 4.374c0 2.441 1.824 4.374 4.256 4.374 1.926 0 3.142-1.22 3.547-1.933l-1.419-1.017c-.506.712-1.114 1.22-2.128 1.22-1.013 0-1.621-.406-2.128-1.322l5.777-2.44zm-5.878 1.425c0-1.628 1.317-2.544 2.23-2.544.709 0 1.418.407 1.62.916zm-4.763 4.17h1.925V20.16H82.58zm-3.04-7.426c-.508-.508-1.318-1.017-2.332-1.017-2.128 0-4.155 1.933-4.155 4.374 0 2.442 1.925 4.273 4.155 4.273 1.014 0 1.824-.509 2.23-1.018h.101v.61c0 1.628-.912 2.544-2.33 2.544-1.116 0-1.927-.814-2.13-1.526l-1.62.712c.506 1.119 1.722 2.543 3.85 2.543 2.23 0 4.054-1.322 4.054-4.476v-7.73h-1.824zm-2.23 6.002c-1.318 0-2.433-1.119-2.433-2.645s1.115-2.645 2.432-2.645c1.318 0 2.331 1.12 2.331 2.645 0 1.526-1.013 2.645-2.33 2.645m24.728-11.291h-4.56v12.715h1.925v-4.78h2.635c2.128 0 4.155-1.527 4.155-3.968s-2.027-3.967-4.155-3.967m.101 6.103h-2.736v-4.374h2.736c1.419 0 2.23 1.22 2.23 2.136-.101 1.12-.912 2.238-2.23 2.238m11.655-1.83c-1.419 0-2.837.61-3.344 1.932l1.723.712c.405-.712 1.013-.916 1.723-.916 1.013 0 1.925.61 2.027 1.628v.102c-.304-.204-1.115-.509-1.926-.509-1.824 0-3.649 1.017-3.649 2.848 0 1.73 1.521 2.849 3.142 2.849 1.318 0 1.926-.61 2.433-1.221h.101v1.017h1.824v-4.883c-.203-2.237-1.925-3.56-4.054-3.56m-.202 7.018c-.608 0-1.521-.305-1.521-1.119 0-1.017 1.115-1.322 2.027-1.322.811 0 1.216.203 1.723.407-.202 1.22-1.216 2.034-2.229 2.034m10.641-6.714-2.128 5.493h-.102l-2.229-5.493h-2.027l3.344 7.731-1.925 4.273h1.925l5.169-12.004zm-17.026 8.138h1.925V20.16h-1.925z"/><path fill="url('#paint0_linear')" d="M9.405 9.985C9.101 10.291 9 10.8 9 11.41v22.48c0 .61.203 1.12.507 1.424l.101.102 12.567-12.613v-.204z"/><path fill="url('#paint1_linear')" d="m26.228 27.075-4.156-4.17v-.306l4.156-4.17.1.101 4.967 2.849c1.419.813 1.419 2.136 0 2.95z"/><path fill="url('#paint2_linear')" d="m26.331 26.973-4.256-4.272L9.406 35.416c.507.509 1.216.509 2.128.102z"/><path fill="#333" d="m26.23 26.873-14.695 8.341c-.811.509-1.52.407-2.027 0l-.102.102.102.102c.506.407 1.216.508 2.027 0z" opacity=".2"/><path fill="url('#paint3_linear')" d="M26.331 18.43 11.535 9.987c-.913-.509-1.622-.407-2.129.101l12.669 12.614z"/><path fill="#333" d="M9.405 35.213C9.101 34.907 9 34.399 9 33.788v.102c0 .61.203 1.12.507 1.424v-.101zm21.891-11.19-5.067 2.848.101.102 4.966-2.848c.71-.407 1.014-.916 1.014-1.424 0 .508-.406.915-1.014 1.322" opacity=".2"/><path fill="#fff" d="M11.534 10.088 31.296 21.38c.608.407 1.014.814 1.014 1.323 0-.509-.304-1.018-1.014-1.424L11.534 9.986C10.114 9.173 9 9.783 9 11.411v.101c0-1.526 1.115-2.238 2.534-1.424" opacity=".2"/><path fill="#333" d="M46.907 12.732c0 .814-.203 1.526-.71 2.034-.608.61-1.317.916-2.23.916-.911 0-1.62-.305-2.229-.916-.608-.61-.912-1.322-.912-2.238s.304-1.627.912-2.238c.608-.61 1.318-.915 2.23-.915q.607 0 1.216.305c.406.204.71.407.912.712l-.506.509c-.406-.509-.913-.712-1.622-.712-.608 0-1.216.203-1.622.712-.506.407-.71 1.017-.71 1.73 0 .711.204 1.322.71 1.728.507.407 1.014.713 1.622.713.71 0 1.216-.204 1.723-.713.304-.305.507-.712.507-1.22h-2.23v-.814h2.939zm4.662-2.543h-2.736v1.932h2.533v.713h-2.533v1.932h2.736v.814h-3.547V9.477h3.547zm3.344 5.391h-.81V10.19H52.38v-.712h4.256v.712h-1.723zm4.662 0V9.477h.811v6.103zm4.257 0h-.81V10.19h-1.724v-.712h4.155v.712h-1.722v5.391zm9.628-.814c-.608.61-1.318.916-2.23.916s-1.621-.305-2.23-.916c-.608-.61-.912-1.322-.912-2.238s.305-1.627.913-2.238c.608-.61 1.317-.915 2.23-.915.911 0 1.62.305 2.229.915.608.61.912 1.323.912 2.238 0 .916-.304 1.628-.912 2.238m-3.851-.508c.405.407 1.013.712 1.621.712s1.216-.204 1.622-.712c.405-.407.71-1.017.71-1.73 0-.712-.203-1.322-.71-1.729-.406-.407-1.014-.712-1.622-.712s-1.216.204-1.621.712a2.46 2.46 0 0 0-.71 1.73c0 .712.203 1.322.71 1.729m5.878 1.322V9.477h.912l2.939 4.78v-4.78h.81v6.103h-.81l-3.142-4.984v4.984z"/><path fill="#fff" d="M46.907 12.732c0 .814-.203 1.526-.71 2.034-.608.61-1.317.916-2.23.916-.911 0-1.62-.305-2.229-.916-.608-.61-.912-1.322-.912-2.238s.304-1.627.912-2.238c.608-.61 1.318-.915 2.23-.915q.607 0 1.216.305c.406.204.71.407.912.712l-.506.509c-.406-.509-.913-.712-1.622-.712-.608 0-1.216.203-1.622.712-.506.407-.71 1.017-.71 1.73 0 .711.204 1.322.71 1.728.507.407 1.014.713 1.622.713.71 0 1.216-.204 1.723-.713.304-.305.507-.712.507-1.22h-2.23v-.814h2.939zm4.662-2.543h-2.736v1.932h2.533v.713h-2.533v1.932h2.736v.814h-3.547V9.477h3.547zm3.344 5.391h-.81V10.19H52.38v-.712h4.256v.712h-1.723zm4.662 0V9.477h.811v6.103zm4.257 0h-.81V10.19h-1.724v-.712h4.155v.712h-1.722v5.391zm9.628-.814c-.608.61-1.318.916-2.23.916s-1.621-.305-2.23-.916c-.608-.61-.912-1.322-.912-2.238s.305-1.627.913-2.238c.608-.61 1.317-.915 2.23-.915.911 0 1.62.305 2.229.915.608.61.912 1.323.912 2.238 0 .916-.304 1.628-.912 2.238m-3.851-.508c.405.407 1.013.712 1.621.712s1.216-.204 1.622-.712c.405-.407.71-1.017.71-1.73 0-.712-.203-1.322-.71-1.729-.406-.407-1.014-.712-1.622-.712s-1.216.204-1.621.712a2.46 2.46 0 0 0-.71 1.73c0 .712.203 1.322.71 1.729m5.878 1.322V9.477h.912l2.939 4.78v-4.78h.81v6.103h-.81l-3.142-4.984v4.984z"/></svg>