<svg viewBox="0 0 136 44" fill="none" xmlns="http://www.w3.org/2000/svg">
  <defs>
    <linearGradient id="paint0_linear" x1="20.9589" y1="11.2162" x2="3.88684" y2="28.2241"
                    gradientUnits="userSpaceOnUse"
    >
      <stop offset="0" stop-color="#00A0FF" />
      <stop offset="0.007" stop-color="#00A1FF" />
      <stop offset="0.26" stop-color="#00BEFF" />
      <stop offset="0.512" stop-color="#00D2FF" />
      <stop offset="0.76" stop-color="#00DFFF" />
      <stop offset="1" stop-color="#00E3FF" />
    </linearGradient>
    <linearGradient id="paint1_linear" x1="33.1535" y1="22.7021" x2="8.63061" y2="22.7021"
                    gradientUnits="userSpaceOnUse"
    >
      <stop offset="0" stop-color="#FFE000" />
      <stop offset="0.409" stop-color="#FFBD00" />
      <stop offset="0.775" stop-color="#FFA500" />
      <stop offset="1" stop-color="#FF9C00" />
    </linearGradient>
    <linearGradient id="paint2_linear" x1="24.0276" y1="25.0362" x2="0.877542" y2="48.1006"
                    gradientUnits="userSpaceOnUse"
    >
      <stop offset="0" stop-color="#FF3A44" />
      <stop offset="1" stop-color="#C31162" />
    </linearGradient>
    <linearGradient id="paint3_linear" x1="6.26146" y1="2.53653" x2="16.5995" y2="12.8363"
                    gradientUnits="userSpaceOnUse"
    >
      <stop offset="0" stop-color="#32A071" />
      <stop offset="0.069" stop-color="#2DA771" />
      <stop offset="0.476" stop-color="#15CF74" />
      <stop offset="0.801" stop-color="#06E775" />
      <stop offset="1" stop-color="#00F076" />
    </linearGradient>
  </defs>
  <path d="M136 0H0V44H136V0Z" fill="#333333" />
  <path
    d="M67.8832 24.5329C65.4508 24.5329 63.5253 26.364 63.5253 28.907C63.5253 31.3484 65.4508 33.2811 67.8832 33.2811C70.3155 33.2811 72.2411 31.4501 72.2411 28.907C72.2411 26.2622 70.3155 24.5329 67.8832 24.5329ZM67.8832 31.4501C66.5657 31.4501 65.4508 30.3312 65.4508 28.8053C65.4508 27.2795 66.5657 26.1605 67.8832 26.1605C69.2007 26.1605 70.3155 27.1777 70.3155 28.8053C70.3155 30.3312 69.2007 31.4501 67.8832 31.4501ZM58.4579 24.5329C56.0256 24.5329 54.1 26.364 54.1 28.907C54.1 31.3484 56.0256 33.2811 58.4579 33.2811C60.8902 33.2811 62.8158 31.4501 62.8158 28.907C62.8158 26.2622 60.8902 24.5329 58.4579 24.5329ZM58.4579 31.4501C57.1404 31.4501 56.0256 30.3312 56.0256 28.8053C56.0256 27.2795 57.1404 26.1605 58.4579 26.1605C59.7754 26.1605 60.8902 27.1777 60.8902 28.8053C60.8902 30.3312 59.7754 31.4501 58.4579 31.4501ZM47.2084 25.8553V27.6864H51.5663C51.465 28.7036 51.0596 29.5174 50.5529 30.026C49.9448 30.6363 48.9313 31.3484 47.2084 31.3484C44.4721 31.3484 42.4451 29.2122 42.4451 26.4657C42.4451 23.7192 44.5734 21.583 47.2084 21.583C48.6273 21.583 49.7421 22.1933 50.5529 22.9054L51.8704 21.583C50.7556 20.5657 49.3367 19.752 47.3098 19.752C43.6613 19.752 40.5195 22.8036 40.5195 26.4657C40.5195 30.1277 43.6613 33.1794 47.3098 33.1794C49.3367 33.1794 50.7556 32.5691 51.9717 31.2467C53.1879 30.026 53.5933 28.2967 53.5933 26.9743C53.5933 26.5674 53.5933 26.1605 53.4919 25.8553H47.2084ZM93.2199 27.2795C92.8145 26.2622 91.801 24.5329 89.5714 24.5329C87.3418 24.5329 85.5175 26.2622 85.5175 28.907C85.5175 31.3484 87.3418 33.2811 89.7741 33.2811C91.6997 33.2811 92.9158 32.0605 93.3212 31.3484L91.9024 30.3312C91.3956 31.0432 90.7876 31.5518 89.7741 31.5518C88.7606 31.5518 88.1525 31.1449 87.6458 30.2294L93.4226 27.7881L93.2199 27.2795ZM87.3418 28.7036C87.3418 27.076 88.6593 26.1605 89.5714 26.1605C90.2808 26.1605 90.9902 26.5674 91.1929 27.076L87.3418 28.7036ZM82.5785 32.8742H84.5041V20.1588H82.5785V32.8742ZM79.5381 25.4485C79.0313 24.9398 78.2206 24.4312 77.2071 24.4312C75.0788 24.4312 73.0519 26.364 73.0519 28.8053C73.0519 31.2467 74.9775 33.0777 77.2071 33.0777C78.2206 33.0777 79.0313 32.5691 79.4367 32.0605H79.5381V32.6708C79.5381 34.2984 78.6259 35.2139 77.2071 35.2139C76.0923 35.2139 75.2815 34.4001 75.0788 33.688L73.4572 34.4001C73.964 35.519 75.1801 36.9432 77.3084 36.9432C79.5381 36.9432 81.3623 35.6208 81.3623 32.4674V24.7364H79.5381V25.4485ZM77.3084 31.4501C75.9909 31.4501 74.8761 30.3312 74.8761 28.8053C74.8761 27.2795 75.9909 26.1605 77.3084 26.1605C78.6259 26.1605 79.6394 27.2795 79.6394 28.8053C79.6394 30.3312 78.6259 31.4501 77.3084 31.4501ZM102.037 20.1588H97.4765V32.8742H99.402V28.0933H102.037C104.165 28.0933 106.192 26.5674 106.192 24.126C106.192 21.6847 104.165 20.1588 102.037 20.1588ZM102.138 26.2622H99.402V21.8881H102.138C103.557 21.8881 104.368 23.1088 104.368 24.0243C104.267 25.1433 103.456 26.2622 102.138 26.2622ZM113.793 24.4312C112.374 24.4312 110.956 25.0416 110.449 26.364L112.172 27.076C112.577 26.364 113.185 26.1605 113.895 26.1605C114.908 26.1605 115.82 26.7709 115.922 27.7881V27.8898C115.618 27.6864 114.807 27.3812 113.996 27.3812C112.172 27.3812 110.347 28.3984 110.347 30.2294C110.347 31.9587 111.868 33.0777 113.489 33.0777C114.807 33.0777 115.415 32.4674 115.922 31.857H116.023V32.8742H117.847V27.9915C117.644 25.7536 115.922 24.4312 113.793 24.4312ZM113.591 31.4501C112.983 31.4501 112.07 31.1449 112.07 30.3312C112.07 29.3139 113.185 29.0088 114.097 29.0088C114.908 29.0088 115.313 29.2122 115.82 29.4157C115.618 30.6363 114.604 31.4501 113.591 31.4501ZM124.232 24.7364L122.104 30.2294H122.002L119.773 24.7364H117.746L121.09 32.4674L119.165 36.7397H121.09L126.259 24.7364H124.232ZM107.206 32.8742H109.131V20.1588H107.206V32.8742Z"
    fill="white"
  />
  <path
    d="M9.40539 9.98535C9.10135 10.2905 9 10.7991 9 11.4095V33.8903C9 34.5006 9.20269 35.0093 9.50673 35.3144L9.60808 35.4162L22.1751 22.8025V22.599L9.40539 9.98535Z"
    fill="url(#paint0_linear)"
  />
  <path
    d="M26.2275 27.0752L22.0723 22.9045V22.5994L26.2275 18.4287L26.3288 18.5304L31.2948 21.3787C32.7137 22.1925 32.7137 23.5149 31.2948 24.3287L26.2275 27.0752Z"
    fill="url(#paint1_linear)"
  />
  <path
    d="M26.3312 26.9731L22.0746 22.7007L9.40625 35.4161C9.91298 35.9247 10.6224 35.9247 11.5345 35.5178L26.3312 26.9731Z"
    fill="url(#paint2_linear)"
  />
  <path opacity="0.2"
        d="M26.2298 26.873L11.5345 35.2143C10.7238 35.723 10.0143 35.6212 9.5076 35.2143L9.40625 35.3161L9.5076 35.4178C10.0143 35.8247 10.7238 35.9264 11.5345 35.4178L26.2298 26.873Z"
        fill="#333333"
  />
  <path
    d="M26.3312 18.4298L11.5345 9.98673C10.6224 9.47812 9.91298 9.57984 9.40625 10.0885L22.0746 22.7021L26.3312 18.4298Z"
    fill="url(#paint3_linear)"
  />
  <path opacity="0.2"
        d="M9.40539 35.2126C9.10135 34.9075 9 34.3989 9 33.7885V33.8902C9 34.5006 9.20269 35.0092 9.50673 35.3144V35.2126H9.40539ZM31.2963 24.0231L26.229 26.8713L26.3303 26.9731L31.2963 24.1248C32.0057 23.7179 32.3098 23.2093 32.3098 22.7007C32.3098 23.2093 31.9044 23.6162 31.2963 24.0231Z"
        fill="#333333"
  />
  <path opacity="0.2"
        d="M11.5337 10.0881L31.2963 21.3793C31.9044 21.7862 32.3098 22.1931 32.3098 22.7017C32.3098 22.1931 32.0057 21.6845 31.2963 21.2776L11.5337 9.98633C10.1148 9.17255 9 9.78288 9 11.4105V11.5122C9 9.98633 10.1148 9.27427 11.5337 10.0881Z"
        fill="white"
  />
  <path
    d="M46.907 12.7319C46.907 13.5457 46.7043 14.2577 46.1976 14.7663C45.5895 15.3767 44.88 15.6818 43.9679 15.6818C43.0558 15.6818 42.3464 15.3767 41.7383 14.7663C41.1302 14.156 40.8262 13.4439 40.8262 12.5284C40.8262 11.6129 41.1302 10.9008 41.7383 10.2905C42.3464 9.68017 43.0558 9.375 43.9679 9.375C44.3733 9.375 44.7787 9.47672 45.1841 9.68017C45.5895 9.88362 45.8935 10.0871 46.0962 10.3922L45.5895 10.9008C45.1841 10.3922 44.6773 10.1888 43.9679 10.1888C43.3598 10.1888 42.7518 10.3922 42.3464 10.9008C41.8396 11.3077 41.6369 11.9181 41.6369 12.6301C41.6369 13.3422 41.8396 13.9525 42.3464 14.3594C42.8531 14.7663 43.3598 15.0715 43.9679 15.0715C44.6773 15.0715 45.1841 14.8681 45.6908 14.3594C45.9949 14.0543 46.1976 13.6474 46.1976 13.1388H43.9679V12.325H46.907V12.7319ZM51.5689 10.1888H48.8326V12.1215H51.3662V12.8336H48.8326V14.7663H51.5689V15.5801H48.0218V9.47672H51.5689V10.1888ZM54.9134 15.5801H54.1026V10.1888H52.3797V9.47672H56.6363V10.1888H54.9134V15.5801ZM59.5753 15.5801V9.47672H60.3861V15.5801H59.5753ZM63.8319 15.5801H63.0211V10.1888H61.2982V9.47672H65.4534V10.1888H63.7306V15.5801H63.8319ZM73.4598 14.7663C72.8518 15.3767 72.1423 15.6818 71.2302 15.6818C70.3181 15.6818 69.6087 15.3767 69.0006 14.7663C68.3925 14.156 68.0885 13.4439 68.0885 12.5284C68.0885 11.6129 68.3925 10.9008 69.0006 10.2905C69.6087 9.68017 70.3181 9.375 71.2302 9.375C72.1423 9.375 72.8518 9.68017 73.4598 10.2905C74.0679 10.9008 74.372 11.6129 74.372 12.5284C74.372 13.4439 74.0679 14.156 73.4598 14.7663ZM69.6087 14.2577C70.0141 14.6646 70.6221 14.9698 71.2302 14.9698C71.8383 14.9698 72.4464 14.7663 72.8518 14.2577C73.2572 13.8508 73.5612 13.2405 73.5612 12.5284C73.5612 11.8164 73.3585 11.206 72.8518 10.7991C72.4464 10.3922 71.8383 10.0871 71.2302 10.0871C70.6221 10.0871 70.0141 10.2905 69.6087 10.7991C69.2033 11.206 68.8992 11.8164 68.8992 12.5284C68.8992 13.2405 69.1019 13.8508 69.6087 14.2577ZM75.4868 15.5801V9.47672H76.3989L79.338 14.2577V9.47672H80.1487V15.5801H79.338L76.1962 10.5957V15.5801H75.4868Z"
    fill="#333333"
  />
  <path
    d="M46.907 12.7319C46.907 13.5457 46.7043 14.2577 46.1976 14.7663C45.5895 15.3767 44.88 15.6818 43.9679 15.6818C43.0558 15.6818 42.3464 15.3767 41.7383 14.7663C41.1302 14.156 40.8262 13.4439 40.8262 12.5284C40.8262 11.6129 41.1302 10.9008 41.7383 10.2905C42.3464 9.68017 43.0558 9.375 43.9679 9.375C44.3733 9.375 44.7787 9.47672 45.1841 9.68017C45.5895 9.88362 45.8935 10.0871 46.0962 10.3922L45.5895 10.9008C45.1841 10.3922 44.6773 10.1888 43.9679 10.1888C43.3598 10.1888 42.7518 10.3922 42.3464 10.9008C41.8396 11.3077 41.6369 11.9181 41.6369 12.6301C41.6369 13.3422 41.8396 13.9525 42.3464 14.3594C42.8531 14.7663 43.3598 15.0715 43.9679 15.0715C44.6773 15.0715 45.1841 14.8681 45.6908 14.3594C45.9949 14.0543 46.1976 13.6474 46.1976 13.1388H43.9679V12.325H46.907V12.7319ZM51.5689 10.1888H48.8326V12.1215H51.3662V12.8336H48.8326V14.7663H51.5689V15.5801H48.0218V9.47672H51.5689V10.1888ZM54.9134 15.5801H54.1026V10.1888H52.3797V9.47672H56.6363V10.1888H54.9134V15.5801ZM59.5753 15.5801V9.47672H60.3861V15.5801H59.5753ZM63.8319 15.5801H63.0211V10.1888H61.2982V9.47672H65.4534V10.1888H63.7306V15.5801H63.8319ZM73.4598 14.7663C72.8518 15.3767 72.1423 15.6818 71.2302 15.6818C70.3181 15.6818 69.6087 15.3767 69.0006 14.7663C68.3925 14.156 68.0885 13.4439 68.0885 12.5284C68.0885 11.6129 68.3925 10.9008 69.0006 10.2905C69.6087 9.68017 70.3181 9.375 71.2302 9.375C72.1423 9.375 72.8518 9.68017 73.4598 10.2905C74.0679 10.9008 74.372 11.6129 74.372 12.5284C74.372 13.4439 74.0679 14.156 73.4598 14.7663ZM69.6087 14.2577C70.0141 14.6646 70.6221 14.9698 71.2302 14.9698C71.8383 14.9698 72.4464 14.7663 72.8518 14.2577C73.2572 13.8508 73.5612 13.2405 73.5612 12.5284C73.5612 11.8164 73.3585 11.206 72.8518 10.7991C72.4464 10.3922 71.8383 10.0871 71.2302 10.0871C70.6221 10.0871 70.0141 10.2905 69.6087 10.7991C69.2033 11.206 68.8992 11.8164 68.8992 12.5284C68.8992 13.2405 69.1019 13.8508 69.6087 14.2577ZM75.4868 15.5801V9.47672H76.3989L79.338 14.2577V9.47672H80.1487V15.5801H79.338L76.1962 10.5957V15.5801H75.4868Z"
    fill="white"
  />
</svg>
